<svg xmlns="http://www.w3.org/2000/svg" 
     height="17" width="134.86" viewBox="0 0 134.85587 17">
    <g fill="#484848" fill-rule="evenodd">
        <path d="m116.84 3.4462-0.31157 0.1247-0.27034 0.187-0.24938 0.1871-0.20783 0.2286-0.22877 0.2078-0.18687 0.2702-0.16626 0.2701-0.12469 0.3118-0.12469 0.2909-0.0625 0.3325-0.0622 0.6858v9.8092l0.0209 0.1247 0.10374 0.1455 0.12469 0.083 0.16626 0.042h2.4729l0.12502-0.042 0.0622-0.042 0.0832-0.042 0.0416-0.083 0.0416-0.062 0.0416-0.1247v-9.4766l3.1589 6.9412 0.29095 0.5819 0.35347 0.6027 0.35313 0.5195 0.18687 0.2286 0.22876 0.2494 0.43627 0.3949 0.51971 0.3325 0.27034 0.1039 0.29062 0.083 0.3119 0.062 0.33251 0.021 0.33251-0.021 0.31191-0.042 0.29061-0.083 0.29128-0.083 0.1038-0.083 0.12469-0.062 0.24939-0.1455 0.20782-0.1662 0.0416-0.062 0.0622-0.042 0.12503-0.083 0.16626-0.2494 0.0831-0.1247 0.0412-0.062 0.0626-0.042 0.16625-0.2702 0.18688-0.2494 0.31189-0.6234 0.33251-0.6651 3.2214-7.0868v9.5182l0.0206 0.1247 0.10368 0.1455 0.12503 0.083 0.16625 0.042h2.4729l0.12469-0.042 0.0626-0.042 0.0832-0.042 0.0412-0.083 0.0419-0.062 0.0412-0.1247v-9.3312l-0.0206-0.3741-0.0416-0.3533-0.0832-0.3533-0.10404-0.3325-0.29062-0.6442-0.18721-0.291-0.1872-0.2494-0.24938-0.2701-0.24939-0.2079-0.29061-0.2078-0.27034-0.1454-0.33251-0.1455-0.33252-0.1039-0.37407-0.062h-0.35313l-0.60285 0.021-0.51973 0.1247-0.27 0.083-0.22877 0.1246-0.43626 0.291-0.39503 0.3325-0.35313 0.4364-0.31189 0.4988-0.22844 0.5819-3.3461 7.918-3.0548-7.5023-0.27034-0.6027-0.16625-0.2909-0.14531-0.2494-0.37408-0.5196-0.20782-0.2286-0.20782-0.187-0.49877-0.3533-0.27001-0.1455-0.24939-0.1039-0.31189-0.1247-0.29095-0.062-0.31157-0.042h-0.31189l-0.68565 0.062-0.60285 0.1871z"/>
        <path d="m23.958 3.3062-0.14547-0.1039-0.12469-0.021h-2.9719l-0.16626 0.021-0.12469 0.1039-0.10391 0.1247-0.0208 0.1662v12.781l0.0208 0.1247 0.10391 0.1455 0.12469 0.083 0.16626 0.042h2.9719l0.12469-0.042 0.0624-0.042 0.0831-0.042 0.0416-0.083 0.0416-0.062 0.0416-0.1247v-12.781l-0.0416-0.1662-0.0831-0.1247z"/>
        <path d="m29.138 3.5762-0.45721 0.1455-0.39486 0.187-0.39486 0.2078-0.3533 0.2702-0.35329 0.2702-0.31173 0.3117-0.27018 0.3325-0.2286 0.3949-0.20782 0.3948-0.14548 0.4365-0.0831 0.4364-0.0208 0.4988 0.0208 0.4364 0.0624 0.4364 0.12469 0.4157 0.18704 0.4156 0.18704 0.3533 0.24939 0.3533 0.27016 0.3117 0.31173 0.3118 0.31172 0.2493 0.37408 0.2287 0.37408 0.2078 0.41565 0.187 0.41564 0.1247 0.41565 0.1039 0.43643 0.062 0.45721 0.021h11.826l0.29095 0.042 0.12469 0.062 0.1453 0.1247 0.16626 0.2494 0.0419 0.1455 0.0206 0.1662-0.0206 0.1247v0.083l-0.0625 0.083-0.0416 0.1039-0.10408 0.1663-0.0831 0.042-0.0412 0.021-0.021 0.042-0.12468 0.083-0.14564 0.042-0.12436 0.021h-15.172l-0.16626 0.021-0.12469 0.1039-0.10391 0.1247-0.0208 0.1662v2.577l0.0208 0.1247 0.10391 0.1455 0.12469 0.083 0.16626 0.042h14.879l0.41564-0.021 0.20815-0.042 0.0412-0.021h0.0625 0.12468l0.41565-0.1039 0.43659-0.1247 0.0831-0.062 0.10374-0.042 0.20782-0.083 0.37408-0.1871 0.16626-0.1246 0.0831-0.062 0.10374-0.042 0.33251-0.2494 0.29129-0.291 0.12435-0.1662 0.0625-0.083 0.0831-0.062 0.0416-0.1039 0.0622-0.083 0.12503-0.1663 0.0412-0.1039 0.0625-0.083 0.12469-0.1663 0.1453-0.4156 0.0625-0.2078v-0.062l0.0206-0.042 0.0419-0.083v-0.1247-0.062l0.0206-0.042 0.0416-0.2078v-0.1247-0.062l0.0209-0.042 0.0206-0.2079-0.0416-0.4364-0.0622-0.4156-0.10408-0.4157-0.14531-0.3948-0.21089-0.3959-0.22857-0.3534-0.24978-0.3323-0.26981-0.271-0.33225-0.2904-0.35346-0.2286-0.37349-0.2287-0.3947-0.1662-0.45832-0.1663-0.43626-0.1039-0.47816-0.062-0.45687-0.021h-11.638l-0.16625-0.021-0.14547-0.042-0.12469-0.083-0.12469-0.1039-0.14547-0.1663-0.0624-0.187v-0.042l-0.0208-0.083v-0.062-0.062l0.0416-0.3117 0.18704-0.2494 0.24939-0.187 0.31173-0.042h14.922l0.12503-0.042 0.0622-0.042 0.0831-0.042 0.0416-0.083 0.0416-0.062 0.0416-0.1246v-2.4939l-0.0416-0.1663-0.0831-0.1247-0.14531-0.1039-0.12503-0.021h-14.34l-0.9352 0.062-0.91441 0.2286z"/>
        <path d="m52.248 3.5962-0.0412-0.1663-0.0837-0.1246-0.1461-0.1039-0.12371-0.021h-2.972l-0.16626 0.021-0.12469 0.1039-0.10408 0.1247-0.0206 0.1662v12.781l0.0206 0.1247 0.10408 0.1455 0.12469 0.083 0.16626 0.042h2.972l0.12436-0.042 0.0625-0.042 0.0831-0.042 0.0416-0.083 0.0416-0.062 0.0416-0.1247v-12.781z"/>
        <path d="m73.178 3.3262-0.1453-0.1039-0.12469-0.021h-13.717-0.60252l-0.56128 0.062-0.54033 0.083-0.47782 0.1455-0.47816 0.1454-0.39503 0.2286-0.3947 0.2286-0.33251 0.3118-0.31156 0.3117-0.27034 0.3533-0.22844 0.3949-0.18721 0.4779-0.1453 0.478-0.10408 0.5404-0.0622 0.5611-0.021 0.6442v4.5305l0.021 0.4157 0.0622 0.4156 0.12468 0.3741 0.18688 0.3949 0.1872 0.3325 0.24939 0.3325 0.24939 0.2909 0.31156 0.291 0.3119 0.2494 0.35313 0.2286 0.35346 0.187 0.3947 0.1663 0.3744 0.1039 0.41565 0.1039 0.41564 0.062 0.43627 0.021h14.381l0.12469-0.042 0.0622-0.042 0.0831-0.042 0.0419-0.083 0.0412-0.062 0.0419-0.1247v-2.5562l-0.0419-0.1663-0.0831-0.1247-0.1453-0.1039-0.12469-0.021h-14.527l-0.16625-0.021-0.14531-0.042-0.12469-0.083-0.12469-0.1039-0.12469-0.1455-0.0625-0.1246-0.0412-0.1455v-0.1247-5.1539l0.0412-0.3117 0.1872-0.2494 0.16626-0.1455 0.22844-0.062 0.16625-0.021h14.527l0.12469-0.042 0.0622-0.042 0.0831-0.042 0.0419-0.083 0.0412-0.062 0.0419-0.1247v-2.5562l-0.0419-0.1662-0.0831-0.1247z"/>
        <path d="m3.9278 3.6362-0.14539-0.1663-0.1455-0.1247-0.18704-0.1039-0.16626-0.021h-3.055l-0.14548 0.021-0.0623 0.1039-0.0208 0.187 5.2787 10.1 0.33252 0.6235 0.39486 0.6027 0.39486 0.5195 0.20782 0.2286 0.24939 0.2494 0.47799 0.3741 0.24939 0.1455 0.29094 0.1454 0.27017 0.1039 0.33252 0.083 0.33251 0.042 0.37408 0.021v-0.021h0.0208 0.0416 0.0831 0.16626l0.31173-0.042 0.12468-0.042v-0.021h0.0208 0.0416 0.0831l0.27017-0.083 0.22861-0.1246 0.24939-0.1247 0.10391-0.083 0.12469-0.062 0.10391-0.083 0.12469-0.062 0.18704-0.2079 0.20782-0.2078 0.37408-0.4364 0.0208-0.083 0.0416-0.062 0.0831-0.1247 0.16626-0.2494 0.33251-0.5611 4.5514-8.5812 0.95552-1.9119 0.0424-0.1662-0.0212-0.1248-0.10368-0.1039-0.10368-0.021h-2.9926l-0.18704 0.021-0.16626 0.1039-0.16626 0.1247-0.10391 0.1663-5.2793 9.6848-5.1955-9.6432z"/>
        <path d="m99.418 3.6362 0.93504-0.062 0.95631 0.021 1.912 0.1039 0.54 0.083 0.49877 0.083 0.43659 0.1039 0.41565 0.1247 0.33251 0.1039 0.33251 0.1455 0.62347 0.3533 0.62347 0.4572 0.24939 0.2702 0.35346 0.5819 0.10374 0.3117 0.0831 0.3741v0.3533l-0.0416 0.187-0.0209 0.021v0.1662l-0.0622 0.104v0.062l-0.0416 0.187-0.16625 0.3533-0.49877 0.665-0.27 0.2286-0.0625 0.083-0.37408 0.3118 2.3067 2.7225 0.93536-0.5819 1.4963-1.1638 0.56095-0.5612 0.5819-0.9144 0.12503-0.2909 0.0412-0.1663 0.0419-0.1247 0.0831-0.5819v-0.2909l-0.066-0.2915-0.16613-0.5196-0.24978-0.5196-0.35346-0.4571-0.47717-0.4573-0.58202-0.4364-0.562-0.3948-0.28984-0.1871-0.27098-0.1454-0.60324-0.2701-0.62209-0.2287-0.70692-0.2286-0.37375-0.1039-0.39503-0.083-0.87284-0.187-0.45721-0.083-0.47816-0.062-1.0597-0.1455-1.1222-0.1039-1.2054-0.062-1.2469-0.021-4.6342 0.062 3.7614 1.1014z"/>
        <path d="m102.48 14.636 1.5585-0.478-5.7358-2.3276-5.1331 0.5819h-7.0869l-1.8078-0.2494-1.3094-0.4156-0.27-0.1247-0.39502-0.2702-0.12469-0.1455-0.27034-0.478-0.14531-0.4779-0.0622-0.4365 0.1453-0.665 0.4366-0.665 0.41564-0.4157 0.7894-0.6026 0.37441-0.2494 0.39469-0.1871 0.47782-0.2701 0.49877-0.2287 0.95631-0.3948 0.45687-0.1871 0.47816-0.1454 0.45721-0.1455 0.47782-0.1039 0.97693-0.2494-1.1013-1.7249-1.4551 0.3325-4.9877 1.5795-2.0572 0.956-2.2654 1.3924-0.9766 0.8936-0.27033 0.291-0.56096 0.9144-0.12468 0.2909-0.12469 0.9352 0.0209 0.3117 0.24939 0.8313 0.27 0.478 0.49877 0.6858 0.22877 0.2286 1.0388 0.7897 1.3719 0.7066 2.3067 0.769 3.803 0.6026 4.5309 0.1663 4.5512-0.2909 5.6318-0.9768 2.7432-0.7897 0.12503-0.042z"/>
        <path fill="#f16763" d="m92.228 8.6662h0.021l8.8116-3.7824-14.61-4.8838 5.778 8.6661z"/>
        <path fill="#3399ff" d="m92.588 9.0462h-0.0209l18.6 7.2321-9.7882-11.015-8.7907 3.7824z"/>
    </g>        
</svg>
